<mxfile host="app.diagrams.net" modified="2023-06-20T04:13:33.220Z" agent="Mozilla/5.0 (Windows NT 10.0; Win64; x64) AppleWebKit/537.36 (KHTML, like Gecko) Chrome/114.0.0.0 Safari/537.36" etag="ZWs_0Nzphy8c2Z1CgINg" version="21.3.7" type="device">
  <diagram name="Page-1" id="tp4ktg-jEZEAIDq7Utvh">
    <mxGraphModel dx="839" dy="626" grid="1" gridSize="10" guides="1" tooltips="1" connect="1" arrows="1" fold="1" page="1" pageScale="1" pageWidth="850" pageHeight="1100" math="0" shadow="0">
      <root>
        <mxCell id="0" />
        <mxCell id="1" parent="0" />
        <mxCell id="g1-xhShBNxiyuC6YghVK-1" value="" style="rounded=0;whiteSpace=wrap;html=1;" vertex="1" parent="1">
          <mxGeometry x="180.5" y="140" width="490" height="340" as="geometry" />
        </mxCell>
        <mxCell id="g1-xhShBNxiyuC6YghVK-2" value="&lt;h5&gt;&lt;font style=&quot;font-size: 14px;&quot;&gt;Hotel Mangement System&lt;/font&gt;&lt;/h5&gt;" style="text;strokeColor=none;align=center;fillColor=none;html=1;verticalAlign=middle;whiteSpace=wrap;rounded=0;" vertex="1" parent="1">
          <mxGeometry x="327" y="160" width="197" height="30" as="geometry" />
        </mxCell>
        <mxCell id="g1-xhShBNxiyuC6YghVK-3" value="Front desk staff" style="shape=umlActor;verticalLabelPosition=bottom;verticalAlign=top;html=1;outlineConnect=0;" vertex="1" parent="1">
          <mxGeometry x="100" y="220" width="30" height="60" as="geometry" />
        </mxCell>
        <mxCell id="g1-xhShBNxiyuC6YghVK-4" value="Billing department" style="shape=umlActor;verticalLabelPosition=bottom;verticalAlign=top;html=1;outlineConnect=0;" vertex="1" parent="1">
          <mxGeometry x="730" y="360" width="30" height="60" as="geometry" />
        </mxCell>
        <mxCell id="g1-xhShBNxiyuC6YghVK-5" value="Medical Staff" style="shape=umlActor;verticalLabelPosition=bottom;verticalAlign=top;html=1;outlineConnect=0;" vertex="1" parent="1">
          <mxGeometry x="730" y="230" width="30" height="60" as="geometry" />
        </mxCell>
        <mxCell id="g1-xhShBNxiyuC6YghVK-6" value="Patient Admission" style="ellipse;whiteSpace=wrap;html=1;" vertex="1" parent="1">
          <mxGeometry x="260" y="220" width="120" height="80" as="geometry" />
        </mxCell>
        <mxCell id="g1-xhShBNxiyuC6YghVK-8" value="Medical Records" style="ellipse;whiteSpace=wrap;html=1;" vertex="1" parent="1">
          <mxGeometry x="490" y="220" width="120" height="80" as="geometry" />
        </mxCell>
        <mxCell id="g1-xhShBNxiyuC6YghVK-9" value="Schedule Appointment" style="ellipse;whiteSpace=wrap;html=1;" vertex="1" parent="1">
          <mxGeometry x="260" y="350" width="120" height="80" as="geometry" />
        </mxCell>
        <mxCell id="g1-xhShBNxiyuC6YghVK-12" value="Receptionist" style="shape=umlActor;verticalLabelPosition=bottom;verticalAlign=top;html=1;outlineConnect=0;" vertex="1" parent="1">
          <mxGeometry x="100" y="360" width="30" height="60" as="geometry" />
        </mxCell>
        <mxCell id="g1-xhShBNxiyuC6YghVK-13" value="Billing Process" style="ellipse;whiteSpace=wrap;html=1;" vertex="1" parent="1">
          <mxGeometry x="500" y="350" width="120" height="80" as="geometry" />
        </mxCell>
        <mxCell id="g1-xhShBNxiyuC6YghVK-16" value="" style="endArrow=classic;html=1;rounded=0;entryX=0;entryY=0.5;entryDx=0;entryDy=0;" edge="1" parent="1" source="g1-xhShBNxiyuC6YghVK-3" target="g1-xhShBNxiyuC6YghVK-6">
          <mxGeometry width="50" height="50" relative="1" as="geometry">
            <mxPoint x="360" y="390" as="sourcePoint" />
            <mxPoint x="410" y="340" as="targetPoint" />
          </mxGeometry>
        </mxCell>
        <mxCell id="g1-xhShBNxiyuC6YghVK-17" value="" style="endArrow=classic;html=1;rounded=0;" edge="1" parent="1" source="g1-xhShBNxiyuC6YghVK-12" target="g1-xhShBNxiyuC6YghVK-9">
          <mxGeometry width="50" height="50" relative="1" as="geometry">
            <mxPoint x="360" y="390" as="sourcePoint" />
            <mxPoint x="410" y="340" as="targetPoint" />
          </mxGeometry>
        </mxCell>
        <mxCell id="g1-xhShBNxiyuC6YghVK-18" value="" style="endArrow=classic;html=1;rounded=0;" edge="1" parent="1" source="g1-xhShBNxiyuC6YghVK-5" target="g1-xhShBNxiyuC6YghVK-8">
          <mxGeometry width="50" height="50" relative="1" as="geometry">
            <mxPoint x="450" y="400" as="sourcePoint" />
            <mxPoint x="500" y="350" as="targetPoint" />
          </mxGeometry>
        </mxCell>
        <mxCell id="g1-xhShBNxiyuC6YghVK-19" value="" style="endArrow=classic;html=1;rounded=0;entryX=1;entryY=0.5;entryDx=0;entryDy=0;" edge="1" parent="1" source="g1-xhShBNxiyuC6YghVK-4" target="g1-xhShBNxiyuC6YghVK-13">
          <mxGeometry width="50" height="50" relative="1" as="geometry">
            <mxPoint x="450" y="400" as="sourcePoint" />
            <mxPoint x="500" y="350" as="targetPoint" />
          </mxGeometry>
        </mxCell>
      </root>
    </mxGraphModel>
  </diagram>
</mxfile>
